<svg width="95" height="97" viewBox="0 0 95 97" fill="none" xmlns="http://www.w3.org/2000/svg">
<path d="M39.1176 85.8153C60.0867 89.7074 80.2666 75.7243 84.1905 54.5833C88.1145 33.4422 74.2966 13.1489 53.3274 9.25688C32.3582 5.36484 12.1784 19.3479 8.25445 40.4889C4.33051 61.63 18.1484 81.9233 39.1176 85.8153Z" stroke="#FF7300" stroke-width="0.5" stroke-miterlimit="10"/>
<path d="M56.0587 8.19027C63.0783 9.49368 69.6109 12.6894 74.9629 17.438C80.3149 22.1866 84.2865 28.3108 86.456 35.1604C88.6254 42.01 88.9117 49.3291 87.2845 56.3407C85.6573 63.3523 82.1773 69.7944 77.214 74.9832L78.8644 95.8237L60.4411 85.4137C54.708 87.2133 48.6475 87.6759 42.7187 86.7664C36.7898 85.8569 31.148 83.5992 26.2206 80.1643C21.2932 76.7295 17.2094 72.2075 14.2785 66.9408C11.3477 61.6742 9.64658 55.8011 9.3041 49.7663C8.96163 43.7314 9.98676 37.6932 12.3018 32.1089C14.6169 26.5245 18.1613 21.5405 22.6664 17.5344C27.1715 13.5283 32.5193 10.6051 38.3047 8.98614C44.0901 7.36722 50.1614 7.09506 56.0587 8.19027Z" fill="#FF7300"/>
<path style="mix-blend-mode:screen" d="M82.2945 26.6274C86.1567 32.9047 88.2056 40.1463 88.2121 47.5417C88.2185 54.9371 86.1822 62.1944 82.3311 68.5013C76.466 47.4111 50.5264 22.6624 9.68096 41.1632C11.0209 33.1757 14.7429 25.782 20.3512 19.9668C25.9595 14.1516 33.1879 10.191 41.0738 8.61239C48.9596 7.0338 57.1286 7.91218 64.4927 11.1305C71.8567 14.3489 78.0664 19.7545 82.2945 26.6274Z" fill="url(#paint0_linear_1566_91)"/>
<path d="M65.0153 23.2851C63.9224 22.3351 61.8818 22.5405 60.9021 23.7417L55.4181 30.4574C54.5103 31.5686 54.7051 33.6196 55.535 34.8824L58.9313 38.6921C61.1557 41.1913 56.8963 45.8334 54.1322 49.2149C51.3681 52.5965 47.1924 57.6793 44.824 56.0197L40.4296 53.4038C39.0195 52.8241 36.979 53.0296 36.0328 54.1773L30.5234 60.9241C29.6103 62.0422 29.8089 64.094 30.8923 64.9468C34.2658 67.5838 37.3516 69.5197 40.2153 69.7214C46.3028 70.0326 53.8708 62.1339 60.3037 54.255C66.7367 46.3762 71.9681 37.857 71.4364 31.4832C70.6898 28.7098 68.2224 26.0542 65.0196 23.262L65.0153 23.2851Z" fill="white"/>
<defs>
<linearGradient id="paint0_linear_1566_91" x1="68.3304" y1="6.59435" x2="42.3819" y2="60.4698" gradientUnits="userSpaceOnUse">
<stop/>
<stop offset="0.22" stop-color="#030302"/>
<stop offset="0.39" stop-color="#0D0B07"/>
<stop offset="0.55" stop-color="#1E1A10"/>
<stop offset="0.7" stop-color="#362E1D"/>
<stop offset="0.85" stop-color="#55492E"/>
<stop offset="0.99" stop-color="#7A6942"/>
<stop offset="1" stop-color="#7E6C44"/>
</linearGradient>
</defs>
</svg>
