<svg width="89" height="90" viewBox="0 0 89 90" fill="none" xmlns="http://www.w3.org/2000/svg">
<path d="M39.0496 82.7427C60.2872 84.697 79.1008 68.9236 81.0711 47.512C83.0414 26.1003 67.4221 7.15854 46.1845 5.2043C24.9469 3.25006 6.13326 19.0234 4.163 40.435C2.19274 61.8467 17.812 80.7885 39.0496 82.7427Z" stroke="#AE1A22" stroke-width="0.5" stroke-miterlimit="10"/>
<path d="M48.8083 3.89187C55.9177 4.54659 62.7156 7.13024 68.4802 11.3685C74.2449 15.6067 78.7609 21.3412 81.5489 27.9632C84.3369 34.5852 85.2926 41.8473 84.3147 48.9785C83.3368 56.1096 80.4618 62.8436 75.9948 68.4653L79.5479 89.0669L60.2483 80.3889C54.7042 82.7062 48.7116 83.7222 42.7243 83.3598C36.737 82.9974 30.9121 81.2662 25.6907 78.2972C20.4693 75.3283 15.9883 71.1995 12.5872 66.2236C9.18607 61.2477 6.95398 55.5552 6.05997 49.5771C5.16597 43.5991 5.63349 37.4923 7.42714 31.7193C9.22079 25.9463 12.2935 20.6586 16.4126 16.2565C20.5317 11.8544 25.5891 8.45344 31.2018 6.31121C36.8146 4.16898 42.8354 3.34164 48.8083 3.89187Z" fill="#AE1A22"/>
<path style="mix-blend-mode:screen" d="M76.6219 19.8474C81.043 25.7444 83.7469 32.7678 84.431 40.1315C85.115 47.4952 83.7523 54.9086 80.4953 61.5419C72.7224 41.0777 44.6241 18.81 5.64576 40.9757C6.24815 32.899 9.27698 25.1954 14.3288 18.8908C19.3807 12.5862 26.2158 7.97985 33.9239 5.68531C41.6319 3.39077 49.847 3.51693 57.4749 6.04698C65.1029 8.57704 71.7818 13.3909 76.6219 19.8474Z" fill="url(#paint0_linear_1278_3311)" fill-opacity="0.27"/>
<path d="M59.1094 18.1025C57.934 17.2567 55.9209 17.6482 55.0553 18.9341L50.2098 26.1241C49.4076 27.3138 49.7895 29.3383 50.7316 30.5198L54.4627 34.0022C56.9068 36.2871 53.0906 41.2999 50.648 44.9205C48.2054 48.5412 44.513 53.9852 42.0025 52.5495L37.3869 50.3473C35.9297 49.8993 33.9165 50.2909 33.0795 51.5205L28.2115 58.7437C27.4047 59.9408 27.7904 61.9657 28.9474 62.7157C32.5484 65.0325 35.7986 66.6775 38.6687 66.6159C44.7591 66.368 51.5715 57.8091 57.2555 49.3739C62.9394 40.9388 67.3681 31.9761 66.2547 25.6778C65.2571 22.9845 62.5567 20.5661 59.1116 18.0792L59.1094 18.1025Z" fill="white"/>
<defs>
<linearGradient id="paint0_linear_1278_3311" x1="60.8809" y1="1.17821" x2="39.9782" y2="57.2047" gradientUnits="userSpaceOnUse">
<stop stop-color="#AE1A22"/>
<stop offset="0.22" stop-color="#AE1A22"/>
<stop offset="0.39" stop-color="#AE1A22"/>
<stop offset="0.55" stop-color="#AE1A22"/>
<stop offset="0.7" stop-color="#AE1A22"/>
<stop offset="0.85" stop-color="#AE1A22"/>
<stop offset="0.99" stop-color="#7A6942"/>
<stop offset="1" stop-color="#AE1A22"/>
</linearGradient>
</defs>
</svg>
