<svg width="98" height="98" viewBox="0 0 98 98" fill="none" xmlns="http://www.w3.org/2000/svg">
<path d="M39.3445 86.2346C60.4762 90.4026 80.9856 76.6508 85.1536 55.5192C89.3216 34.3875 75.5698 13.878 54.4381 9.71002C33.3064 5.54203 12.797 19.2938 8.62896 40.4255C4.46097 61.5572 18.2128 82.0667 39.3445 86.2346Z" stroke="#FF7300" stroke-miterlimit="10"/>
<path d="M58.3678 8.90505C65.4417 10.3008 72.0056 13.5863 77.3624 18.4126C82.7192 23.2389 86.669 29.4259 88.7923 36.3165C90.9156 43.207 91.1331 50.544 89.4219 57.5483C87.7106 64.5526 84.1344 70.9627 79.0729 76.098L80.5355 96.9999L62.0377 86.334C56.2322 88.0636 50.1093 88.4495 44.1326 87.4624C38.1559 86.4753 32.4822 84.141 27.5412 80.6364C22.6002 77.1318 18.5216 72.5488 15.6141 67.2344C12.7067 61.9201 11.0467 56.0138 10.7599 49.963C10.4731 43.9121 11.567 37.8753 13.9588 32.3098C16.3506 26.7443 19.9775 21.796 24.5648 17.8398C29.1522 13.8836 34.5797 11.0232 40.4362 9.4752C46.2928 7.9272 52.4248 7.73223 58.3678 8.90505Z" fill="#FF7300"/>
<path style="mix-blend-mode:screen" d="M84.6737 27.7139C88.5114 34.0527 90.5093 41.3346 90.4435 48.7444C90.3778 56.1542 88.2511 63.3995 84.3016 69.6693C78.5864 48.4632 52.6405 23.3346 11.2237 41.3483C12.6545 33.3625 16.4843 26.0021 22.203 20.2475C27.9218 14.4928 35.258 10.6171 43.2347 9.13638C51.2114 7.65568 59.4499 8.64034 66.853 11.9592C74.256 15.2781 80.4722 20.7736 84.6737 27.7139Z" fill="url(#paint0_linear_1372_3906)"/>
<path d="M67.263 24.1439C66.1689 23.178 64.1068 23.3578 63.1059 24.5487L57.504 31.2072C56.5766 32.3089 56.7532 34.3664 57.5787 35.6423L60.9703 39.5028C63.1916 42.0354 58.846 46.6318 56.0225 49.9846C53.1989 53.3373 48.9336 58.3765 46.5588 56.6833L42.1479 54.0061C40.7301 53.4073 38.668 53.587 37.7015 54.7249L32.0735 61.4142C31.1407 62.5228 31.3212 64.581 32.4066 65.4494C35.7866 68.1347 38.883 70.1138 41.7722 70.3525C47.9149 70.7423 55.6324 62.9252 62.2038 55.1134C68.7753 47.3017 74.1399 38.833 73.6654 32.4401C72.9388 29.6517 70.4737 26.9594 67.2676 24.1208L67.263 24.1439Z" fill="white"/>
<path d="M23.288 42.3396C23.3159 42.3432 23.3415 42.3568 23.3602 42.3778C23.3835 42.4068 23.3987 42.4414 23.4042 42.4782C23.4114 42.5357 23.4146 42.5937 23.4139 42.6517C23.4003 42.7208 23.4021 42.8129 23.3893 42.9181C23.3765 43.0233 23.3499 43.1178 23.3355 43.1907C23.3225 43.2474 23.3036 43.3025 23.2792 43.3551C23.2639 43.388 23.2404 43.4163 23.2111 43.4375C23.1876 43.4524 23.1595 43.4582 23.132 43.4538L20.9159 43.1404L20.6235 45.1891L22.8396 45.5025C22.867 45.5079 22.8921 45.5211 22.9119 45.5407C22.9355 45.5682 22.951 45.6016 22.9567 45.6373C22.9633 45.6949 22.9666 45.7528 22.9664 45.8108C22.9527 45.8799 22.9345 45.9721 22.9402 46.0849C22.9459 46.1977 22.9016 46.2807 22.888 46.3499C22.8747 46.4077 22.8555 46.4641 22.8308 46.5181C22.8156 46.5509 22.7921 46.5793 22.7627 46.6004C22.7386 46.6147 22.7109 46.6217 22.683 46.6206L17.5058 45.8867C17.4783 45.8819 17.453 45.8685 17.4335 45.8485C17.4085 45.8206 17.3931 45.7854 17.3895 45.7481C17.3813 45.6894 17.3783 45.63 17.3806 45.5708C17.3831 45.4802 17.3916 45.39 17.406 45.3005C17.4181 45.2099 17.4358 45.1201 17.459 45.0317C17.4748 44.9757 17.495 44.921 17.5192 44.868C17.533 44.8344 17.5568 44.8057 17.5873 44.7857C17.6112 44.772 17.6389 44.7663 17.6663 44.7694L19.6805 45.055L19.9691 43.0055L17.9587 42.7206C17.9302 42.7152 17.9038 42.7017 17.8826 42.6817C17.86 42.6544 17.8458 42.6211 17.8417 42.5859C17.8331 42.5285 17.8299 42.4704 17.832 42.4124C17.8351 42.3193 17.8441 42.2265 17.8589 42.1345C17.8687 42.0448 17.8861 41.9561 17.9112 41.8695C17.9244 41.8129 17.9433 41.7579 17.9675 41.7051C17.9814 41.6714 18.0051 41.6427 18.0356 41.6228C18.0588 41.6071 18.0872 41.6012 18.1146 41.6064L23.288 42.3396Z" fill="white"/>
<path d="M25.0479 37.185C25.0645 37.1908 25.0794 37.2005 25.0915 37.2133C25.1035 37.2261 25.1123 37.2416 25.1171 37.2585C25.1298 37.3055 25.1296 37.3551 25.1168 37.402C25.0972 37.4905 25.0708 37.5774 25.0376 37.6617C25.0051 37.7497 24.9669 37.8354 24.9232 37.9184C24.904 37.9589 24.8738 37.993 24.8359 38.0169C24.8195 38.0208 24.8024 38.0211 24.7858 38.0179C24.7693 38.0146 24.7536 38.0078 24.7399 37.9979L24.4533 37.8935C24.557 38.0995 24.6172 38.3245 24.6301 38.5547C24.6463 38.7842 24.6118 39.0144 24.529 39.229C24.4645 39.4073 24.3736 39.5749 24.2594 39.7263C24.1577 39.859 24.03 39.9696 23.8841 40.0513C23.7426 40.1314 23.5847 40.178 23.4224 40.1876C23.2363 40.1913 23.0516 40.1549 22.8809 40.0808C22.692 40.016 22.522 39.9057 22.3857 39.7597C22.2601 39.6181 22.1743 39.4456 22.1372 39.2599C22.0988 39.0316 22.1003 38.7984 22.1415 38.5706C22.1945 38.2775 22.2752 37.9902 22.3826 37.7125L22.5114 37.3629L22.2932 37.2959C22.1925 37.2627 22.088 37.2421 21.9822 37.2346C21.8961 37.2272 21.8094 37.2387 21.7282 37.2683C21.6489 37.3054 21.5802 37.3618 21.5283 37.4323C21.4587 37.5255 21.4045 37.6293 21.3679 37.7398C21.3081 37.8911 21.27 38.0501 21.2548 38.2121C21.2424 38.3443 21.2402 38.4773 21.2481 38.6098C21.2569 38.7272 21.2648 38.8285 21.2766 38.9106C21.29 38.9723 21.2883 39.0363 21.2717 39.0971C21.2613 39.1261 21.241 39.1503 21.2143 39.1656C21.1834 39.182 21.1488 39.1903 21.1138 39.1897C21.0667 39.1872 21.0201 39.178 20.9756 39.1624C20.9161 39.1543 20.8571 39.1426 20.7989 39.1276C20.7329 39.103 20.6696 39.0718 20.6099 39.0344C20.5662 39.0003 20.5312 38.9565 20.5074 38.9065C20.476 38.8292 20.4571 38.7474 20.4515 38.6641C20.4406 38.539 20.4387 38.4133 20.4459 38.288C20.4574 38.1288 20.4806 37.9707 20.5153 37.8149C20.5446 37.6536 20.5892 37.4954 20.6483 37.3425C20.7307 37.0938 20.8471 36.8576 20.9942 36.6408C21.1064 36.477 21.2547 36.3411 21.4276 36.2435C21.596 36.1573 21.7842 36.1174 21.9731 36.1277C22.2027 36.1358 22.4296 36.1806 22.6451 36.2603L25.0479 37.185ZM23.1453 37.6076L23.0043 37.9787C22.947 38.1171 22.9064 38.2617 22.8834 38.4097C22.8629 38.5156 22.8645 38.6245 22.8881 38.7298C22.9039 38.8146 22.9438 38.8931 23.003 38.9559C23.0621 39.0177 23.1348 39.0648 23.2153 39.0935C23.2793 39.1197 23.3482 39.1321 23.4173 39.1299C23.4865 39.1278 23.5544 39.1111 23.6167 39.0809C23.7475 39.0036 23.8455 38.881 23.8921 38.7363C23.9435 38.5985 23.9563 38.4494 23.9294 38.3048C23.8937 38.1371 23.8327 37.9757 23.7485 37.8263L23.1453 37.6076Z" fill="white"/>
<path d="M27.8969 32.1617C27.9088 32.1679 27.9192 32.1766 27.9274 32.1872C27.9357 32.1978 27.9416 32.21 27.9447 32.223C27.9497 32.2562 27.943 32.2902 27.9257 32.319C27.9136 32.3735 27.8938 32.426 27.8671 32.475C27.8339 32.5349 27.7912 32.6103 27.7387 32.701C27.6814 32.7894 27.6347 32.864 27.5919 32.9194C27.5572 32.9632 27.5185 33.0036 27.4763 33.0402C27.4501 33.0636 27.418 33.0793 27.3835 33.0857C27.357 33.0903 27.3296 33.0849 27.3067 33.0706L25.4614 31.9087C25.3395 31.827 25.2078 31.7608 25.0694 31.7117C24.9771 31.6772 24.8799 31.658 24.7814 31.6549C24.6913 31.6586 24.6036 31.6852 24.5267 31.7324C24.4426 31.7835 24.3724 31.8546 24.3223 31.9394C24.248 32.0711 24.218 32.2232 24.2368 32.3733C24.2563 32.5788 24.3023 32.781 24.3735 32.9748L26.5256 34.3208C26.5379 34.3271 26.5489 34.3358 26.5578 34.3465C26.5667 34.3572 26.5732 34.3695 26.5772 34.3828C26.5783 34.4159 26.5718 34.4487 26.5582 34.4788C26.5427 34.5339 26.5215 34.5872 26.4949 34.6379C26.4577 34.7162 26.4148 34.7918 26.3666 34.8639C26.3229 34.9387 26.2741 35.0104 26.2205 35.0785C26.186 35.1238 26.147 35.1655 26.1042 35.2031C26.078 35.2265 26.0459 35.2423 26.0114 35.2487C25.9848 35.2533 25.9575 35.2479 25.9346 35.2335L22.6992 33.211C22.6771 33.1964 22.6591 33.1764 22.6468 33.1528C22.6348 33.1233 22.6328 33.0907 22.6412 33.06C22.652 33.012 22.6692 32.9658 22.6923 32.9224C22.7224 32.8549 22.7579 32.7899 22.7984 32.7279C22.8369 32.663 22.8798 32.6008 22.9269 32.5418C22.9549 32.5027 22.99 32.469 23.0303 32.4425C23.0527 32.4221 23.082 32.4108 23.1123 32.4108C23.1388 32.4083 23.1655 32.4136 23.1891 32.426L23.562 32.6591C23.4842 32.3944 23.4523 32.1182 23.4677 31.8426C23.4937 31.609 23.5775 31.3856 23.7117 31.1926C23.8265 30.9989 23.9819 30.8322 24.1671 30.704C24.3256 30.6029 24.506 30.5413 24.6932 30.5245C24.8842 30.5103 25.0761 30.5346 25.2576 30.5959C25.4828 30.6745 25.6977 30.7798 25.8978 30.9097L27.8969 32.1617Z" fill="white"/>
<path d="M28.9982 25.5528C29.0773 25.6186 29.1414 25.7007 29.1861 25.7933C29.2124 25.8624 29.2102 25.9138 29.1804 25.9438L28.8704 26.2816C28.9603 26.2774 29.0499 26.2951 29.1315 26.3331C29.2143 26.375 29.2911 26.4277 29.3599 26.4899C29.5093 26.6211 29.631 26.7807 29.7181 26.9595C29.7918 27.1261 29.8256 27.3076 29.817 27.4896C29.8073 27.6812 29.7567 27.8684 29.6688 28.0389C29.5709 28.2376 29.4421 28.4196 29.2872 28.578C29.2075 28.6655 29.116 28.7415 29.0153 28.8036C28.9367 28.8538 28.8512 28.892 28.7615 28.9171C28.7674 28.9713 28.7797 29.0246 28.798 29.0759C28.8182 29.1312 28.8506 29.1812 28.8928 29.2223C28.9239 29.2479 28.9609 29.2655 29.0004 29.2733C29.04 29.2811 29.0809 29.2789 29.1194 29.2669C29.223 29.239 29.3168 29.1829 29.3907 29.105L30.0567 28.4385C30.1954 28.2974 30.3535 28.1768 30.5263 28.0803C30.6655 27.9965 30.8202 27.9416 30.9811 27.9187C31.1273 27.9004 31.2757 27.916 31.4149 27.9644C31.5623 28.0172 31.6967 28.1009 31.8093 28.2097C31.9459 28.3373 32.0514 28.4946 32.1176 28.6695C32.1875 28.8619 32.2071 29.069 32.1745 29.2711C32.1427 29.4997 32.0694 29.7205 31.9582 29.9226C31.813 30.1773 31.6327 30.4103 31.4227 30.6149C31.2333 30.8197 31.0231 31.0042 30.7955 31.1654C30.6293 31.2823 30.4459 31.3727 30.252 31.4332C30.1017 31.4752 29.9432 31.4782 29.7914 31.4421C29.658 31.3998 29.5358 31.328 29.4339 31.232C29.3681 31.169 29.3111 31.0973 29.2645 31.019C29.2199 30.9417 29.1839 30.8596 29.1571 30.7744C29.1327 30.6816 29.118 30.5864 29.1134 30.4905C29.1088 30.3875 29.1131 30.2842 29.1264 30.1819C28.9966 30.2263 28.857 30.2333 28.7235 30.2022C28.5965 30.172 28.4796 30.109 28.3845 30.0196C28.2676 29.9111 28.1805 29.7744 28.1316 29.6227C28.0828 29.4687 28.0593 29.3077 28.062 29.1462C27.9172 29.1457 27.7738 29.1174 27.6396 29.0629C27.474 28.9961 27.324 28.8959 27.199 28.7685C27.0469 28.6318 26.9262 28.4637 26.8454 28.2759C26.7712 28.105 26.7369 27.9195 26.7449 27.7334C26.7543 27.5396 26.8026 27.3497 26.887 27.175C26.9824 27.0004 27.1039 26.8414 27.2473 26.7035C27.3277 26.62 27.4126 26.5409 27.5015 26.4664C27.5812 26.4004 27.6652 26.3397 27.7528 26.2846L28.5909 25.3727C28.6101 25.354 28.6348 25.3418 28.6613 25.3377C28.6878 25.3337 28.715 25.338 28.739 25.3501C28.8393 25.3977 28.9278 25.4669 28.9982 25.5528ZM28.7062 27.1748C28.6482 27.1095 28.5764 27.0579 28.4961 27.0237C28.4157 26.9895 28.3288 26.9735 28.2415 26.9768C28.1543 26.9802 28.0688 27.0029 27.9914 27.0433C27.9139 27.0836 27.8464 27.1406 27.7936 27.2102C27.7245 27.2762 27.6717 27.3572 27.6392 27.447C27.606 27.5233 27.5897 27.6058 27.5915 27.689C27.5993 27.7701 27.6246 27.8486 27.6658 27.9191C27.7077 27.9948 27.7615 28.0633 27.8252 28.122C27.8833 28.1837 27.9535 28.2326 28.0314 28.2658C28.1092 28.299 28.1932 28.3158 28.2778 28.315C28.4104 28.2948 28.5355 28.2408 28.6412 28.1582C28.7469 28.0757 28.8296 27.9674 28.8815 27.8437C28.9145 27.7687 28.9305 27.6874 28.9284 27.6056C28.9202 27.5253 28.8963 27.4473 28.858 27.3763C28.8198 27.3006 28.7684 27.2323 28.7062 27.1748ZM31.0985 29.0828C31.058 29.0403 31.0069 29.0095 30.9504 28.9934C30.894 28.9774 30.8342 28.9767 30.7774 28.9916C30.6332 29.0321 30.5037 29.1132 30.4042 29.2252L29.8668 29.7654C29.8531 29.8437 29.8494 29.9235 29.8559 30.0027C29.8604 30.063 29.8713 30.1227 29.8886 30.1807C29.8998 30.2265 29.9198 30.2697 29.9473 30.3079C29.9723 30.3451 30.0018 30.3791 30.0351 30.409C30.0847 30.4578 30.1475 30.4909 30.2157 30.5044C30.284 30.5178 30.3547 30.511 30.4191 30.4848C30.6099 30.3989 30.7802 30.2734 30.9186 30.1165C31.0184 30.0129 31.1022 29.895 31.1671 29.7666C31.2141 29.6805 31.2436 29.586 31.2539 29.4885C31.263 29.4107 31.2525 29.3318 31.2234 29.2591C31.1934 29.1929 31.151 29.133 31.0985 29.0828Z" fill="white"/>
<path d="M38.6089 21.1095C38.7579 21.3753 38.8587 21.6653 38.9067 21.9661C38.945 22.2373 38.9205 22.5136 38.8352 22.7738C38.7416 23.0398 38.5917 23.2824 38.3957 23.4851C38.1601 23.7308 37.8852 23.9355 37.5821 24.0906C37.3123 24.2421 37.0216 24.3528 36.7194 24.4191C36.4566 24.4713 36.1854 24.4641 35.9256 24.3982C35.6662 24.3288 35.4266 24.1995 35.2261 24.0208C34.994 23.8068 34.8022 23.5527 34.6599 23.2708L33.0846 20.2952C33.0723 20.2697 33.0682 20.241 33.0728 20.2131C33.0826 20.1779 33.1013 20.1458 33.1271 20.12C33.1703 20.0808 33.2161 20.0445 33.2642 20.0114C33.3402 19.9605 33.4188 19.9134 33.4995 19.8703C33.5968 19.8217 33.6766 19.7816 33.7456 19.7553C33.7993 19.7354 33.8544 19.7196 33.9105 19.708C33.9476 19.7045 33.985 19.7119 34.018 19.7293C34.0308 19.734 34.0425 19.7413 34.0523 19.7508C34.0621 19.7603 34.0698 19.7717 34.075 19.7844L35.6033 22.675C35.6923 22.8464 35.8066 23.0034 35.9423 23.1408C36.0548 23.2496 36.1893 23.3332 36.3367 23.3861C36.4726 23.4177 36.6137 23.4196 36.7505 23.3919C36.9092 23.3701 37.0626 23.3192 37.2029 23.2418C37.347 23.1692 37.4762 23.0702 37.5837 22.9499C37.6756 22.8457 37.7446 22.7234 37.7861 22.5909C37.8216 22.4456 37.8269 22.2946 37.8018 22.1472C37.7725 21.9729 37.714 21.8049 37.6286 21.6502L36.0717 18.7021C36.0597 18.6779 36.0553 18.6506 36.0592 18.6239C36.0647 18.587 36.0841 18.5537 36.1135 18.5308C36.1538 18.4884 36.2 18.4518 36.2506 18.4222C36.3251 18.3708 36.4024 18.3234 36.482 18.2804C36.5613 18.2379 36.6432 18.2008 36.7274 18.1692C36.7804 18.1458 36.836 18.1287 36.893 18.1181C36.9276 18.1136 36.9626 18.1206 36.9929 18.1378C37.0176 18.1509 37.0385 18.1702 37.0537 18.1937L38.6089 21.1095Z" fill="white"/>
<path d="M44.7573 19.1744C44.8408 19.4721 44.8835 19.7798 44.8841 20.0891C44.8894 20.3458 44.8458 20.6012 44.7556 20.8417C44.6742 21.0583 44.5402 21.2512 44.3656 21.4031C44.1776 21.5645 43.9541 21.679 43.7132 21.7372C43.6148 21.7628 43.514 21.779 43.4125 21.7856C43.3165 21.7878 43.2205 21.7783 43.1268 21.7571C43.0265 21.7362 42.9283 21.7062 42.8334 21.6673C42.7355 21.6241 42.6302 21.5714 42.5175 21.5093L42.9727 23.2467C42.9776 23.2733 42.9722 23.3008 42.9575 23.3235C42.9486 23.3565 42.9303 23.3861 42.9048 23.4089C42.8587 23.4423 42.8078 23.4686 42.7538 23.4868C42.673 23.5194 42.5903 23.5471 42.5061 23.5696C42.4017 23.5929 42.3181 23.6123 42.2483 23.6225C42.1872 23.6383 42.1241 23.6447 42.061 23.6414C42.0266 23.6437 41.9922 23.6369 41.9612 23.6217C41.9392 23.6039 41.9231 23.5798 41.915 23.5527L40.538 18.3981C40.5353 18.3728 40.5403 18.3474 40.5524 18.3251C40.5646 18.296 40.5848 18.271 40.6105 18.2528C40.652 18.2143 40.6987 18.1819 40.7492 18.1565C40.8173 18.1281 40.8872 18.1046 40.9586 18.0861L41.1703 18.044C41.2182 18.0359 41.2669 18.0334 41.3154 18.0368C41.3459 18.0333 41.3768 18.0394 41.4037 18.0542C41.4257 18.071 41.4408 18.0952 41.4461 18.1224L41.5624 18.5443C41.6418 18.4043 41.7221 18.2805 41.8001 18.1683C41.8776 18.0616 41.9653 17.9626 42.0618 17.8728C42.1518 17.7899 42.2516 17.7185 42.3591 17.6602C42.473 17.5999 42.5934 17.5527 42.718 17.5195C42.9577 17.462 43.208 17.466 43.4457 17.5314C43.6623 17.5846 43.8621 17.6912 44.0268 17.8415C44.2053 18.0065 44.3531 18.2018 44.4636 18.4183C44.5868 18.6598 44.6852 18.9131 44.7573 19.1744ZM43.6921 19.5388C43.6506 19.3915 43.5976 19.2476 43.5336 19.1086C43.4763 18.9797 43.4005 18.8599 43.3085 18.753C43.2295 18.6599 43.1285 18.5878 43.0147 18.5435C42.8945 18.5006 42.7638 18.4971 42.6416 18.5337C42.5724 18.5524 42.5063 18.581 42.4453 18.6187C42.3782 18.6614 42.3181 18.7141 42.2669 18.775C42.2026 18.8486 42.1455 18.9282 42.0963 19.0126C42.0359 19.1236 41.9827 19.2384 41.9368 19.3562L42.2708 20.555C42.4346 20.6825 42.6129 20.79 42.8021 20.8753C42.9454 20.9381 43.1056 20.9515 43.2574 20.9132C43.3811 20.8847 43.4924 20.8171 43.5747 20.7205C43.6516 20.6216 43.7055 20.5069 43.7327 20.3846C43.7626 20.2561 43.7739 20.124 43.7662 19.9922C43.7564 19.839 43.7315 19.6872 43.6921 19.5388Z" fill="white"/>
<defs>
<linearGradient id="paint0_linear_1372_3906" x1="69.8841" y1="7.89271" x2="43.3832" y2="61.6497" gradientUnits="userSpaceOnUse">
<stop/>
<stop offset="0.22" stop-color="#030302"/>
<stop offset="0.39" stop-color="#0D0B07"/>
<stop offset="0.55" stop-color="#1E1A10"/>
<stop offset="0.7" stop-color="#362E1D"/>
<stop offset="0.85" stop-color="#55492E"/>
<stop offset="0.99" stop-color="#7A6942"/>
<stop offset="1" stop-color="#7E6C44"/>
</linearGradient>
</defs>
</svg>
