<svg width="97" height="97" viewBox="0 0 97 97" fill="none" xmlns="http://www.w3.org/2000/svg">
<path d="M38.7624 85.5921C59.8941 89.7601 80.4036 76.0083 84.5716 54.8766C88.7395 33.7449 74.9878 13.2354 53.8561 9.06745C32.7244 4.89945 12.2149 18.6513 8.04693 39.7829C3.87894 60.9146 17.6307 81.4241 38.7624 85.5921Z" stroke="#AE1A22" stroke-miterlimit="10"/>
<path d="M57.7858 8.26248C64.8597 9.65827 71.4236 12.9438 76.7804 17.7701C82.1372 22.5964 86.087 28.7833 88.2103 35.6739C90.3336 42.5645 90.5511 49.9015 88.8398 56.9058C87.1286 63.91 83.5523 70.3201 78.4909 75.4554L79.9535 96.3573L61.4557 85.6914C55.6502 87.4211 49.5272 87.8069 43.5505 86.8198C37.5738 85.8327 31.9001 83.4984 26.9592 79.9938C22.0182 76.4892 17.9395 71.9062 15.0321 66.5919C12.1246 61.2775 10.4647 55.3713 10.1779 49.3204C9.89107 43.2695 10.985 37.2327 13.3768 31.6672C15.7685 26.1017 19.3955 21.1535 23.9828 17.1973C28.5702 13.241 33.9976 10.3806 39.8542 8.83262C45.7107 7.28462 51.8427 7.08965 57.7858 8.26248Z" fill="#AE1A22"/>
<path style="mix-blend-mode:screen" d="M84.0917 27.0713C87.9294 33.4102 89.9272 40.692 89.8615 48.1018C89.7958 55.5116 87.6691 62.7569 83.7195 69.0267C78.0044 47.8206 52.0585 22.692 10.6417 40.7057C12.0724 32.7199 15.9022 25.3595 21.621 19.6049C27.3397 13.8503 34.676 9.9745 42.6527 8.4938C50.6294 7.01311 58.8679 7.99776 66.2709 11.3166C73.674 14.6355 79.8902 20.131 84.0917 27.0713Z" fill="url(#paint0_linear_1566_35)"/>
<path d="M66.681 23.5013C65.5869 22.5355 63.5248 22.7152 62.5239 23.9061L56.9219 30.5646C55.9945 31.6663 56.1712 33.7238 56.9967 34.9997L60.3882 38.8602C62.6095 41.3928 58.264 45.9892 55.4404 49.342C52.6169 52.6947 48.3516 57.7339 45.9767 56.0407L41.5659 53.3635C40.148 52.7647 38.0859 52.9444 37.1195 54.0823L31.4915 60.7716C30.5587 61.8802 30.7392 63.9384 31.8246 64.8068C35.2046 67.4921 38.301 69.4712 41.1902 69.7099C47.3328 70.0997 55.0503 62.2826 61.6218 54.4708C68.1933 46.6591 73.5579 38.1904 73.0834 31.7975C72.3567 29.0092 69.8917 26.3168 66.6855 23.4782L66.681 23.5013Z" fill="white"/>
<path d="M22.7059 41.697C22.7338 41.7007 22.7595 41.7142 22.7782 41.7352C22.8015 41.7642 22.8166 41.7989 22.8222 41.8356C22.8294 41.8932 22.8326 41.9511 22.8319 42.0091C22.8183 42.0782 22.82 42.1703 22.8073 42.2755C22.7945 42.3807 22.7679 42.4752 22.7535 42.5482C22.7405 42.6048 22.7216 42.6599 22.6971 42.7126C22.6818 42.7454 22.6584 42.7737 22.629 42.7949C22.6056 42.8098 22.5775 42.8156 22.55 42.8112L20.3339 42.4978L20.0415 44.5465L22.2576 44.86C22.2849 44.8653 22.3101 44.8786 22.3299 44.8982C22.3534 44.9256 22.3689 44.959 22.3747 44.9948C22.3813 45.0523 22.3845 45.1103 22.3843 45.1682C22.3707 45.2373 22.3525 45.3295 22.3582 45.4423C22.3639 45.5551 22.3196 45.6382 22.3059 45.7073C22.2927 45.7652 22.2735 45.8215 22.2488 45.8755C22.2335 45.9084 22.2101 45.9367 22.1807 45.9579C22.1566 45.9721 22.1289 45.9792 22.1009 45.978L16.9238 45.2441C16.8963 45.2393 16.871 45.2259 16.8515 45.2059C16.8265 45.178 16.8111 45.1428 16.8075 45.1055C16.7992 45.0468 16.7963 44.9874 16.7986 44.9282C16.8011 44.8377 16.8096 44.7474 16.8239 44.6579C16.8361 44.5673 16.8538 44.4776 16.877 44.3891C16.8928 44.3331 16.9129 44.2784 16.9372 44.2255C16.951 44.1918 16.9748 44.1631 17.0053 44.1432C17.0292 44.1294 17.0569 44.1237 17.0843 44.1268L19.0985 44.4124L19.387 42.3629L17.3767 42.0781C17.3481 42.0726 17.3217 42.0591 17.3006 42.0391C17.278 42.0118 17.2638 41.9785 17.2596 41.9433C17.2511 41.8859 17.2478 41.8278 17.25 41.7698C17.2531 41.6767 17.2621 41.5839 17.2769 41.4919C17.2866 41.4022 17.3041 41.3136 17.3291 41.2269C17.3424 41.1704 17.3613 41.1153 17.3855 41.0625C17.3993 41.0288 17.4231 41.0001 17.4536 40.9802C17.4767 40.9645 17.5052 40.9586 17.5326 40.9639L22.7059 41.697Z" fill="white"/>
<path d="M24.4658 36.5424C24.4824 36.5482 24.4974 36.5579 24.5094 36.5707C24.5215 36.5835 24.5303 36.599 24.5351 36.6159C24.5477 36.6629 24.5476 36.7125 24.5347 36.7595C24.5152 36.848 24.4888 36.9348 24.4556 37.0191C24.4231 37.1071 24.3849 37.1928 24.3411 37.2758C24.322 37.3163 24.2917 37.3504 24.2539 37.3743C24.2375 37.3782 24.2204 37.3786 24.2038 37.3753C24.1872 37.372 24.1716 37.3652 24.1579 37.3554L23.8713 37.251C23.975 37.4569 24.0351 37.682 24.0481 37.9122C24.0643 38.1416 24.0298 38.3718 23.947 38.5864C23.8824 38.7647 23.7916 38.9324 23.6773 39.0838C23.5757 39.2165 23.448 39.327 23.3021 39.4087C23.1606 39.4888 23.0026 39.5354 22.8403 39.545C22.6543 39.5487 22.4696 39.5123 22.2989 39.4382C22.11 39.3734 21.9399 39.2632 21.8037 39.1171C21.678 38.9755 21.5923 38.803 21.5552 38.6173C21.5168 38.389 21.5183 38.1558 21.5595 37.928C21.6125 37.635 21.6932 37.3477 21.8006 37.0699L21.9294 36.7203L21.7112 36.6533C21.6104 36.6201 21.506 36.5995 21.4001 36.592C21.314 36.5846 21.2274 36.5961 21.1461 36.6257C21.0669 36.6628 20.9981 36.7192 20.9462 36.7897C20.8766 36.8829 20.8225 36.9868 20.7859 37.0972C20.7261 37.2485 20.688 37.4076 20.6727 37.5696C20.6604 37.7017 20.6582 37.8347 20.6661 37.9672C20.6749 38.0846 20.6828 38.1859 20.6945 38.268C20.708 38.3297 20.7063 38.3937 20.6897 38.4546C20.6793 38.4835 20.6589 38.5078 20.6323 38.523C20.6013 38.5394 20.5668 38.5477 20.5318 38.5471C20.4847 38.5446 20.4381 38.5354 20.3935 38.5198C20.334 38.5117 20.275 38.5001 20.2169 38.485C20.1509 38.4604 20.0875 38.4292 20.0278 38.3919C19.9842 38.3578 19.9491 38.314 19.9254 38.2639C19.894 38.1866 19.8751 38.1048 19.8695 38.0215C19.8586 37.8964 19.8567 37.7707 19.8639 37.6454C19.8754 37.4862 19.8985 37.3281 19.9332 37.1724C19.9626 37.0111 20.0072 36.8529 20.0663 36.6999C20.1487 36.4512 20.2651 36.215 20.4122 35.9982C20.5244 35.8344 20.6727 35.6985 20.8456 35.601C21.014 35.5147 21.2022 35.4748 21.3911 35.4851C21.6207 35.4932 21.8475 35.538 22.0631 35.6177L24.4658 36.5424ZM22.5633 36.965L22.4223 37.3362C22.365 37.4745 22.3244 37.6192 22.3014 37.7671C22.2809 37.873 22.2825 37.982 22.306 38.0872C22.3219 38.172 22.3618 38.2505 22.421 38.3133C22.4801 38.3751 22.5527 38.4223 22.6332 38.4509C22.6973 38.4771 22.7661 38.4895 22.8353 38.4874C22.9045 38.4852 22.9724 38.4685 23.0347 38.4384C23.1655 38.361 23.2634 38.2384 23.3101 38.0937C23.3614 37.956 23.3743 37.8068 23.3473 37.6622C23.3116 37.4945 23.2507 37.3331 23.1664 37.1837L22.5633 36.965Z" fill="white"/>
<path d="M27.3149 31.5191C27.3268 31.5254 27.3372 31.534 27.3454 31.5446C27.3536 31.5552 27.3595 31.5674 27.3626 31.5804C27.3677 31.6136 27.361 31.6476 27.3437 31.6764C27.3316 31.7309 27.3118 31.7834 27.285 31.8324C27.2519 31.8924 27.2091 31.9677 27.1567 32.0584C27.0993 32.1468 27.0527 32.2214 27.0099 32.2768C26.9752 32.3206 26.9365 32.3611 26.8943 32.3976C26.8681 32.421 26.836 32.4368 26.8015 32.4432C26.7749 32.4477 26.7476 32.4424 26.7247 32.428L24.8794 31.2662C24.7574 31.1844 24.6257 31.1182 24.4874 31.0692C24.3951 31.0346 24.2978 31.0154 24.1994 31.0123C24.1093 31.016 24.0216 31.0427 23.9447 31.0898C23.8606 31.1409 23.7904 31.2121 23.7403 31.2968C23.6659 31.4285 23.6359 31.5807 23.6547 31.7307C23.6743 31.9363 23.7203 32.1384 23.7914 32.3322L25.9435 33.6782C25.9559 33.6845 25.9669 33.6932 25.9757 33.7039C25.9846 33.7146 25.9912 33.727 25.9951 33.7403C25.9963 33.7733 25.9898 33.8061 25.9762 33.8363C25.9607 33.8913 25.9395 33.9447 25.9129 33.9953C25.8756 34.0737 25.8327 34.1492 25.7846 34.2213C25.7408 34.2961 25.692 34.3678 25.6385 34.4359C25.6039 34.4812 25.565 34.523 25.5222 34.5606C25.496 34.5839 25.4639 34.5997 25.4294 34.6061C25.4028 34.6107 25.3755 34.6053 25.3526 34.5909L22.1171 32.5684C22.095 32.5538 22.077 32.5338 22.0648 32.5103C22.0527 32.4808 22.0508 32.4481 22.0592 32.4174C22.07 32.3695 22.0872 32.3232 22.1102 32.2798C22.1404 32.2123 22.1759 32.1473 22.2164 32.0854C22.2548 32.0204 22.2978 31.9582 22.3449 31.8993C22.3729 31.8601 22.408 31.8264 22.4482 31.8C22.4707 31.7795 22.4999 31.7682 22.5303 31.7683C22.5568 31.7657 22.5835 31.771 22.6071 31.7834L22.98 32.0166C22.9021 31.7518 22.8703 31.4756 22.8857 31.2001C22.9117 30.9665 22.9955 30.743 23.1296 30.55C23.2445 30.3563 23.3999 30.1896 23.585 30.0614C23.7435 29.9603 23.9239 29.8988 24.1112 29.8819C24.3022 29.8677 24.4941 29.892 24.6755 29.9533C24.9007 30.0319 25.1157 30.1373 25.3158 30.2671L27.3149 31.5191Z" fill="white"/>
<path d="M28.4162 24.9102C28.4953 24.9761 28.5594 25.0581 28.6041 25.1508C28.6304 25.2198 28.6282 25.2712 28.5983 25.3012L28.2884 25.639C28.3783 25.6348 28.4679 25.6525 28.5495 25.6905C28.6323 25.7324 28.7091 25.7851 28.7779 25.8473C28.9272 25.9785 29.049 26.1381 29.1361 26.3169C29.2097 26.4835 29.2436 26.665 29.235 26.847C29.2252 27.0386 29.1747 27.2258 29.0867 27.3963C28.9889 27.5951 28.8601 27.777 28.7051 27.9354C28.6255 28.0229 28.534 28.0989 28.4332 28.161C28.3547 28.2112 28.2692 28.2494 28.1795 28.2745C28.1854 28.3287 28.1976 28.382 28.216 28.4333C28.2361 28.4886 28.2686 28.5386 28.3108 28.5797C28.3418 28.6054 28.3788 28.6229 28.4184 28.6307C28.4579 28.6385 28.4988 28.6363 28.5373 28.6244C28.6409 28.5964 28.7348 28.5404 28.8086 28.4625L29.4747 27.7959C29.6134 27.6548 29.7715 27.5342 29.9443 27.4378C30.0835 27.354 30.2382 27.299 30.399 27.2761C30.5452 27.2578 30.6937 27.2734 30.8329 27.3218C30.9802 27.3747 31.1147 27.4583 31.2273 27.5671C31.3639 27.6948 31.4693 27.8521 31.5356 28.0269C31.6055 28.2193 31.625 28.4264 31.5924 28.6285C31.5607 28.8571 31.4874 29.0779 31.3761 29.28C31.2309 29.5347 31.0507 29.7678 30.8407 29.9723C30.6513 30.1771 30.4411 30.3616 30.2135 30.5228C30.0473 30.6398 29.8639 30.7301 29.6699 30.7906C29.5197 30.8326 29.3612 30.8357 29.2094 30.7995C29.0759 30.7572 28.9538 30.6854 28.8519 30.5894C28.786 30.5264 28.729 30.4548 28.6825 30.3764C28.6378 30.2991 28.6018 30.2171 28.5751 30.1319C28.5506 30.039 28.536 29.9439 28.5314 29.848C28.5268 29.7449 28.5311 29.6416 28.5444 29.5393C28.4146 29.5837 28.275 29.5907 28.1414 29.5596C28.0144 29.5294 27.8975 29.4665 27.8024 29.377C27.6856 29.2685 27.5985 29.1319 27.5496 28.9801C27.5007 28.8261 27.4772 28.6652 27.48 28.5036C27.3352 28.5031 27.1918 28.4748 27.0576 28.4203C26.892 28.3536 26.742 28.2533 26.617 28.1259C26.4648 27.9892 26.3442 27.8212 26.2633 27.6333C26.1892 27.4624 26.1548 27.2769 26.1629 27.0909C26.1722 26.8971 26.2206 26.7071 26.3049 26.5324C26.4004 26.3579 26.5219 26.1989 26.6652 26.0609C26.7457 25.9774 26.8306 25.8983 26.9194 25.8238C26.9992 25.7579 27.0831 25.6971 27.1707 25.642L28.0088 24.7302C28.0281 24.7115 28.0527 24.6992 28.0793 24.6952C28.1058 24.6911 28.133 24.6954 28.1569 24.7075C28.2573 24.7551 28.3458 24.8243 28.4162 24.9102ZM28.1242 26.5322C28.0661 26.4669 27.9944 26.4153 27.914 26.3811C27.8337 26.3469 27.7468 26.3309 27.6595 26.3343C27.5722 26.3377 27.4868 26.3603 27.4094 26.4007C27.3319 26.441 27.2644 26.4981 27.2116 26.5676C27.1425 26.6336 27.0896 26.7147 27.0571 26.8045C27.0239 26.8807 27.0077 26.9632 27.0094 27.0464C27.0173 27.1276 27.0426 27.2061 27.0837 27.2765C27.1257 27.3522 27.1795 27.4208 27.2432 27.4795C27.3012 27.5411 27.3714 27.59 27.4493 27.6233C27.5272 27.6565 27.6111 27.6732 27.6958 27.6725C27.8284 27.6522 27.9535 27.5982 28.0592 27.5156C28.1649 27.4331 28.2476 27.3248 28.2994 27.2011C28.3324 27.1262 28.3485 27.0449 28.3464 26.963C28.3382 26.8827 28.3142 26.8047 28.2759 26.7337C28.2378 26.658 28.1864 26.5897 28.1242 26.5322ZM30.5165 28.4403C30.476 28.3978 30.4249 28.3669 30.3684 28.3508C30.3119 28.3348 30.2522 28.3342 30.1954 28.349C30.0512 28.3896 29.9217 28.4706 29.8222 28.5826L29.2848 29.1229C29.271 29.2012 29.2674 29.2809 29.2739 29.3601C29.2783 29.4204 29.2893 29.4801 29.3066 29.5381C29.3178 29.5839 29.3377 29.6271 29.3653 29.6654C29.3903 29.7025 29.4197 29.7365 29.453 29.7664C29.5027 29.8152 29.5655 29.8483 29.6337 29.8618C29.702 29.8752 29.7726 29.8684 29.8371 29.8422C30.0278 29.7563 30.1981 29.6308 30.3366 29.4739C30.4364 29.3703 30.5201 29.2524 30.5851 29.124C30.6321 29.0379 30.6616 28.9434 30.6719 28.8459C30.681 28.7681 30.6705 28.6892 30.6413 28.6165C30.6114 28.5503 30.569 28.4905 30.5165 28.4403Z" fill="white"/>
<path d="M38.0269 20.4669C38.1759 20.7327 38.2767 21.0227 38.3247 21.3236C38.363 21.5947 38.3385 21.8711 38.2531 22.1313C38.1596 22.3972 38.0097 22.6398 37.8137 22.8425C37.5781 23.0883 37.3031 23.2929 37.0001 23.448C36.7303 23.5995 36.4396 23.7102 36.1374 23.7765C35.8745 23.8287 35.6033 23.8215 35.3436 23.7556C35.0842 23.6862 34.8446 23.557 34.6441 23.3782C34.4119 23.1642 34.2202 22.9102 34.0779 22.6283L32.5025 19.6526C32.4902 19.6271 32.4861 19.5984 32.4908 19.5705C32.5006 19.5353 32.5193 19.5033 32.5451 19.4775C32.5883 19.4382 32.6341 19.402 32.6822 19.3689C32.7582 19.3179 32.8367 19.2708 32.9175 19.2278C33.0148 19.1791 33.0945 19.139 33.1636 19.1127C33.2173 19.0929 33.2724 19.0771 33.3285 19.0655C33.3656 19.0619 33.403 19.0693 33.436 19.0867C33.4488 19.0914 33.4605 19.0987 33.4703 19.1082C33.4801 19.1177 33.4878 19.1291 33.4929 19.1418L35.0212 22.0324C35.1102 22.2038 35.2245 22.3608 35.3602 22.4982C35.4728 22.607 35.6073 22.6907 35.7547 22.7435C35.8906 22.7751 36.0317 22.7771 36.1684 22.7494C36.3272 22.7275 36.4806 22.6766 36.6209 22.5992C36.765 22.5266 36.8941 22.4276 37.0016 22.3073C37.0936 22.2032 37.1625 22.0808 37.2041 21.9483C37.2396 21.803 37.2449 21.652 37.2198 21.5046C37.1905 21.3303 37.1319 21.1623 37.0465 21.0076L35.4897 18.0595C35.4777 18.0353 35.4733 18.008 35.4772 17.9813C35.4826 17.9444 35.5021 17.9111 35.5314 17.8882C35.5718 17.8458 35.618 17.8092 35.6686 17.7797C35.7431 17.7282 35.8204 17.6809 35.9 17.6378C35.9792 17.5953 36.0612 17.5582 36.1453 17.5266C36.1984 17.5032 36.254 17.4861 36.311 17.4755C36.3455 17.4711 36.3806 17.478 36.4109 17.4952C36.4355 17.5083 36.4565 17.5276 36.4716 17.5511L38.0269 20.4669Z" fill="white"/>
<path d="M44.1753 18.5318C44.2588 18.8296 44.3015 19.1373 44.302 19.4465C44.3074 19.7032 44.2638 19.9586 44.1736 20.1991C44.0922 20.4157 43.9582 20.6086 43.7836 20.7605C43.5956 20.9219 43.372 21.0364 43.1312 21.0946C43.0327 21.1202 42.932 21.1364 42.8304 21.143C42.7344 21.1452 42.6385 21.1357 42.5448 21.1146C42.4445 21.0936 42.3462 21.0636 42.2514 21.0248C42.1535 20.9815 42.0482 20.9288 41.9354 20.8667L42.3906 22.6041C42.3956 22.6307 42.3902 22.6582 42.3755 22.6809C42.3666 22.7139 42.3482 22.7435 42.3228 22.7663C42.2767 22.7997 42.2257 22.826 42.1718 22.8442C42.091 22.8769 42.0082 22.9045 41.924 22.927C41.8197 22.9503 41.7361 22.9697 41.6663 22.9799C41.6052 22.9958 41.542 23.0022 41.479 22.9988C41.4446 23.0012 41.4101 22.9944 41.3792 22.9791C41.3572 22.9613 41.3411 22.9373 41.3329 22.9102L39.956 17.7555C39.9533 17.7303 39.9583 17.7048 39.9704 17.6825C39.9826 17.6534 40.0027 17.6284 40.0285 17.6102C40.07 17.5718 40.1167 17.5393 40.1672 17.5139C40.2352 17.4855 40.3052 17.462 40.3766 17.4435L40.5883 17.4015C40.6362 17.3933 40.6849 17.3909 40.7334 17.3942C40.7639 17.3907 40.7947 17.3968 40.8217 17.4116C40.8437 17.4284 40.8587 17.4527 40.8641 17.4798L40.9803 17.9017C41.0598 17.7618 41.1401 17.638 41.2181 17.5257C41.2956 17.419 41.3833 17.3201 41.4798 17.2302C41.5697 17.1473 41.6696 17.0759 41.7771 17.0176C41.891 16.9573 42.0114 16.9101 42.1359 16.8769C42.3756 16.8194 42.626 16.8235 42.8637 16.8888C43.0802 16.942 43.28 17.0486 43.4448 17.1989C43.6232 17.364 43.7711 17.5592 43.8816 17.7758C44.0048 18.0172 44.1032 18.2705 44.1753 18.5318ZM43.11 18.8962C43.0685 18.7489 43.0155 18.605 42.9515 18.466C42.8943 18.3371 42.8184 18.2173 42.7264 18.1104C42.6474 18.0173 42.5465 17.9453 42.4327 17.9009C42.3125 17.858 42.1818 17.8546 42.0596 17.8911C41.9904 17.9098 41.9243 17.9385 41.8633 17.9761C41.7962 18.0188 41.736 18.0715 41.6849 18.1324C41.6206 18.206 41.5635 18.2856 41.5143 18.37C41.4539 18.4811 41.4006 18.5958 41.3548 18.7136L41.6888 19.9125C41.8525 20.0399 42.0309 20.1474 42.2201 20.2327C42.3634 20.2955 42.5236 20.3089 42.6754 20.2706C42.7991 20.2421 42.9103 20.1745 42.9927 20.0779C43.0695 19.979 43.1235 19.8643 43.1507 19.742C43.1806 19.6135 43.1919 19.4814 43.1842 19.3497C43.1743 19.1965 43.1495 19.0446 43.11 18.8962Z" fill="white"/>
<defs>
<linearGradient id="paint0_linear_1566_35" x1="69.3021" y1="7.25013" x2="42.8012" y2="61.0071" gradientUnits="userSpaceOnUse">
<stop/>
<stop offset="0.22" stop-color="#030302"/>
<stop offset="0.39" stop-color="#0D0B07"/>
<stop offset="0.55" stop-color="#1E1A10"/>
<stop offset="0.7" stop-color="#362E1D"/>
<stop offset="0.85" stop-color="#55492E"/>
<stop offset="0.99" stop-color="#7A6942"/>
<stop offset="1" stop-color="#7E6C44"/>
</linearGradient>
</defs>
</svg>
